<svg width="321" height="321" viewBox="0 0 321 321" fill="none" xmlns="http://www.w3.org/2000/svg">
<rect width="321" height="321" fill="url(#paint0_linear_6_14)"/>
<mask id="mask0_6_14" style="mask-type:luminance" maskUnits="userSpaceOnUse" x="67" y="42" width="187" height="237">
<path d="M100.857 42H219.357C228.337 42 236.948 45.5671 243.298 51.9165C249.647 58.266 253.214 66.8777 253.214 75.8571V202.821C253.214 223.025 245.188 242.402 230.902 256.688C216.616 270.974 197.24 279 177.036 279H143.179C122.975 279 103.598 270.974 89.3122 256.688C75.0259 242.402 67 223.025 67 202.821L67 75.8571C67 66.8777 70.5671 58.266 76.9165 51.9165C83.266 45.5671 91.8777 42 100.857 42Z" fill="white"/>
</mask>
<g mask="url(#mask0_6_14)">
<path d="M253.214 42H67V101.25H253.214V42Z" fill="#FFF9F2"/>
<path d="M253.214 101.25H67V160.5H253.214V101.25Z" fill="#F2A93B"/>
<path d="M253.214 160.5H67V219.75H253.214V160.5Z" fill="#E0396B"/>
<path d="M253.214 219.75H67V279H253.214V219.75Z" fill="#5A6ACF"/>
</g>
<path d="M219.357 40C228.867 40.0001 237.987 43.7776 244.712 50.502C251.436 57.2265 255.214 66.3475 255.214 75.8574V202.821C255.214 223.555 246.978 243.44 232.316 258.102C217.655 272.763 197.77 281 177.036 281H143.179C122.444 281 102.56 272.763 87.8984 258.102C73.2371 243.44 65 223.556 65 202.821V75.8574L65.0107 74.9668C65.2387 65.7796 68.9876 57.0163 75.502 50.502C82.2265 43.7774 91.3475 40 100.857 40H219.357Z" stroke="#43322B" stroke-opacity="0.12" stroke-width="4"/>
<defs>
<linearGradient id="paint0_linear_6_14" x1="160" y1="0" x2="160" y2="328.5" gradientUnits="userSpaceOnUse">
<stop stop-color="#9AA2FF"/>
<stop offset="0.674037" stop-color="#5E6BFF"/>
</linearGradient>
</defs>
</svg>
